<mxfile host="app.diagrams.net" modified="2023-04-23T09:01:23.254Z" agent="Mozilla/5.0 (Windows NT 10.0; Win64; x64) AppleWebKit/537.36 (KHTML, like Gecko) Chrome/107.0.0.0 Safari/537.36" etag="qqvLvPRJhLLXW0px9QEG" version="21.2.1" type="github" pages="5">
  <diagram name="用户登录" id="4wPeK3QuAl5NIFBzR7qd">
    <mxGraphModel dx="728" dy="478" grid="0" gridSize="10" guides="1" tooltips="1" connect="1" arrows="1" fold="1" page="1" pageScale="1" pageWidth="827" pageHeight="1169" math="0" shadow="0">
      <root>
        <mxCell id="0" />
        <mxCell id="1" parent="0" />
        <mxCell id="xW0CoT5ufHXNttLThE9w-2" style="edgeStyle=orthogonalEdgeStyle;rounded=0;orthogonalLoop=1;jettySize=auto;html=1;entryX=0.5;entryY=0;entryDx=0;entryDy=0;" edge="1" parent="1" source="xW0CoT5ufHXNttLThE9w-3" target="xW0CoT5ufHXNttLThE9w-10">
          <mxGeometry relative="1" as="geometry" />
        </mxCell>
        <mxCell id="xW0CoT5ufHXNttLThE9w-3" value="&lt;span&gt;输入用户名和密码，选择用户类型&lt;/span&gt;" style="shape=parallelogram;perimeter=parallelogramPerimeter;whiteSpace=wrap;html=1;" vertex="1" parent="1">
          <mxGeometry x="211" y="235" width="262" height="43" as="geometry" />
        </mxCell>
        <mxCell id="xW0CoT5ufHXNttLThE9w-4" style="edgeStyle=orthogonalEdgeStyle;rounded=0;orthogonalLoop=1;jettySize=auto;html=1;entryX=0.5;entryY=0;entryDx=0;entryDy=0;" edge="1" parent="1" source="xW0CoT5ufHXNttLThE9w-5" target="xW0CoT5ufHXNttLThE9w-7">
          <mxGeometry relative="1" as="geometry" />
        </mxCell>
        <mxCell id="xW0CoT5ufHXNttLThE9w-5" value="开始" style="ellipse;whiteSpace=wrap;html=1;" vertex="1" parent="1">
          <mxGeometry x="298.5" y="68" width="109.5" height="35" as="geometry" />
        </mxCell>
        <mxCell id="xW0CoT5ufHXNttLThE9w-6" style="edgeStyle=orthogonalEdgeStyle;rounded=0;orthogonalLoop=1;jettySize=auto;html=1;entryX=0.542;entryY=0.091;entryDx=0;entryDy=0;entryPerimeter=0;" edge="1" parent="1" source="xW0CoT5ufHXNttLThE9w-7" target="xW0CoT5ufHXNttLThE9w-3">
          <mxGeometry relative="1" as="geometry" />
        </mxCell>
        <mxCell id="xW0CoT5ufHXNttLThE9w-7" value="进入登录界面" style="rounded=0;whiteSpace=wrap;html=1;" vertex="1" parent="1">
          <mxGeometry x="293" y="142" width="120" height="37" as="geometry" />
        </mxCell>
        <mxCell id="xW0CoT5ufHXNttLThE9w-8" style="edgeStyle=orthogonalEdgeStyle;rounded=0;orthogonalLoop=1;jettySize=auto;html=1;entryX=0.5;entryY=0;entryDx=0;entryDy=0;" edge="1" parent="1" source="xW0CoT5ufHXNttLThE9w-10" target="xW0CoT5ufHXNttLThE9w-12">
          <mxGeometry relative="1" as="geometry" />
        </mxCell>
        <mxCell id="xW0CoT5ufHXNttLThE9w-9" style="edgeStyle=elbowEdgeStyle;rounded=0;orthogonalLoop=1;jettySize=auto;elbow=vertical;html=1;entryX=1;entryY=0.5;entryDx=0;entryDy=0;" edge="1" parent="1" source="xW0CoT5ufHXNttLThE9w-10" target="xW0CoT5ufHXNttLThE9w-7">
          <mxGeometry relative="1" as="geometry">
            <Array as="points">
              <mxPoint x="514" y="289" />
            </Array>
          </mxGeometry>
        </mxCell>
        <mxCell id="xW0CoT5ufHXNttLThE9w-10" value="用户名、密码和用户类型是否匹配" style="rhombus;whiteSpace=wrap;html=1;" vertex="1" parent="1">
          <mxGeometry x="236" y="325" width="212" height="48" as="geometry" />
        </mxCell>
        <mxCell id="xW0CoT5ufHXNttLThE9w-11" style="edgeStyle=orthogonalEdgeStyle;rounded=0;orthogonalLoop=1;jettySize=auto;html=1;entryX=0.5;entryY=0;entryDx=0;entryDy=0;" edge="1" parent="1" source="xW0CoT5ufHXNttLThE9w-12" target="xW0CoT5ufHXNttLThE9w-13">
          <mxGeometry relative="1" as="geometry" />
        </mxCell>
        <mxCell id="xW0CoT5ufHXNttLThE9w-12" value="用户登录成功" style="rounded=0;whiteSpace=wrap;html=1;" vertex="1" parent="1">
          <mxGeometry x="282" y="411" width="120" height="41" as="geometry" />
        </mxCell>
        <mxCell id="xW0CoT5ufHXNttLThE9w-13" value="结束" style="ellipse;whiteSpace=wrap;html=1;" vertex="1" parent="1">
          <mxGeometry x="287.5" y="490" width="109.5" height="32" as="geometry" />
        </mxCell>
        <mxCell id="xW0CoT5ufHXNttLThE9w-14" value="N" style="text;html=1;align=center;verticalAlign=middle;resizable=0;points=[];autosize=1;" vertex="1" parent="1">
          <mxGeometry x="530" y="260" width="19" height="18" as="geometry" />
        </mxCell>
        <mxCell id="xW0CoT5ufHXNttLThE9w-15" value="Y" style="text;html=1;align=center;verticalAlign=middle;resizable=0;points=[];autosize=1;" vertex="1" parent="1">
          <mxGeometry x="311" y="383" width="18" height="18" as="geometry" />
        </mxCell>
      </root>
    </mxGraphModel>
  </diagram>
  <diagram id="PlDyLaPOvFkjR8fmi2Td" name="添加楼宇">
    <mxGraphModel dx="728" dy="478" grid="0" gridSize="10" guides="1" tooltips="1" connect="1" arrows="1" fold="1" page="1" pageScale="1" pageWidth="827" pageHeight="1169" math="0" shadow="0">
      <root>
        <mxCell id="0" />
        <mxCell id="1" parent="0" />
        <mxCell id="GDoxcyXFHjR7pWv2unTO-1" style="edgeStyle=orthogonalEdgeStyle;rounded=0;orthogonalLoop=1;jettySize=auto;html=1;entryX=0.5;entryY=0;entryDx=0;entryDy=0;" edge="1" parent="1" source="GDoxcyXFHjR7pWv2unTO-2" target="GDoxcyXFHjR7pWv2unTO-9">
          <mxGeometry relative="1" as="geometry" />
        </mxCell>
        <mxCell id="GDoxcyXFHjR7pWv2unTO-2" value="&lt;span&gt;选择所属区域，输入楼宇编号、备注信息&lt;/span&gt;" style="shape=parallelogram;perimeter=parallelogramPerimeter;whiteSpace=wrap;html=1;" vertex="1" parent="1">
          <mxGeometry x="200.5" y="235" width="283" height="40" as="geometry" />
        </mxCell>
        <mxCell id="GDoxcyXFHjR7pWv2unTO-4" value="开始" style="ellipse;whiteSpace=wrap;html=1;" vertex="1" parent="1">
          <mxGeometry x="298.5" y="68" width="109.5" height="35" as="geometry" />
        </mxCell>
        <mxCell id="GDoxcyXFHjR7pWv2unTO-5" style="edgeStyle=orthogonalEdgeStyle;rounded=0;orthogonalLoop=1;jettySize=auto;html=1;entryX=0.542;entryY=0.091;entryDx=0;entryDy=0;entryPerimeter=0;" edge="1" parent="1" source="GDoxcyXFHjR7pWv2unTO-6" target="GDoxcyXFHjR7pWv2unTO-2">
          <mxGeometry relative="1" as="geometry" />
        </mxCell>
        <mxCell id="GDoxcyXFHjR7pWv2unTO-6" value="进入楼宇管理界面" style="rounded=0;whiteSpace=wrap;html=1;" vertex="1" parent="1">
          <mxGeometry x="293.25" y="181" width="120" height="37" as="geometry" />
        </mxCell>
        <mxCell id="GDoxcyXFHjR7pWv2unTO-7" style="edgeStyle=orthogonalEdgeStyle;rounded=0;orthogonalLoop=1;jettySize=auto;html=1;entryX=0.5;entryY=0;entryDx=0;entryDy=0;" edge="1" parent="1" source="GDoxcyXFHjR7pWv2unTO-9" target="GDoxcyXFHjR7pWv2unTO-11">
          <mxGeometry relative="1" as="geometry" />
        </mxCell>
        <mxCell id="GDoxcyXFHjR7pWv2unTO-15" style="edgeStyle=orthogonalEdgeStyle;rounded=0;orthogonalLoop=1;jettySize=auto;html=1;entryX=1;entryY=0.25;entryDx=0;entryDy=0;" edge="1" parent="1" source="GDoxcyXFHjR7pWv2unTO-9" target="GDoxcyXFHjR7pWv2unTO-2">
          <mxGeometry relative="1" as="geometry">
            <Array as="points">
              <mxPoint x="533" y="345" />
              <mxPoint x="533" y="246" />
            </Array>
          </mxGeometry>
        </mxCell>
        <mxCell id="GDoxcyXFHjR7pWv2unTO-9" value="验证选择所属区域，楼宇编号是否有效" style="rhombus;whiteSpace=wrap;html=1;" vertex="1" parent="1">
          <mxGeometry x="221.5" y="321" width="241" height="48" as="geometry" />
        </mxCell>
        <mxCell id="GDoxcyXFHjR7pWv2unTO-10" style="edgeStyle=orthogonalEdgeStyle;rounded=0;orthogonalLoop=1;jettySize=auto;html=1;entryX=0.5;entryY=0;entryDx=0;entryDy=0;" edge="1" parent="1" source="GDoxcyXFHjR7pWv2unTO-11" target="GDoxcyXFHjR7pWv2unTO-12">
          <mxGeometry relative="1" as="geometry" />
        </mxCell>
        <mxCell id="GDoxcyXFHjR7pWv2unTO-11" value="添加楼宇成功" style="rounded=0;whiteSpace=wrap;html=1;" vertex="1" parent="1">
          <mxGeometry x="282" y="411" width="120" height="41" as="geometry" />
        </mxCell>
        <mxCell id="GDoxcyXFHjR7pWv2unTO-12" value="结束" style="ellipse;whiteSpace=wrap;html=1;" vertex="1" parent="1">
          <mxGeometry x="287.5" y="490" width="109.5" height="32" as="geometry" />
        </mxCell>
        <mxCell id="GDoxcyXFHjR7pWv2unTO-14" value="Y" style="text;html=1;align=center;verticalAlign=middle;resizable=0;points=[];autosize=1;" vertex="1" parent="1">
          <mxGeometry x="311" y="383" width="18" height="18" as="geometry" />
        </mxCell>
        <mxCell id="GDoxcyXFHjR7pWv2unTO-16" value="N" style="text;html=1;align=center;verticalAlign=middle;resizable=0;points=[];autosize=1;strokeColor=none;fillColor=none;" vertex="1" parent="1">
          <mxGeometry x="501" y="276" width="27" height="26" as="geometry" />
        </mxCell>
        <mxCell id="GDoxcyXFHjR7pWv2unTO-18" value="" style="edgeStyle=orthogonalEdgeStyle;rounded=0;orthogonalLoop=1;jettySize=auto;html=1;entryX=0.5;entryY=0;entryDx=0;entryDy=0;" edge="1" parent="1" source="GDoxcyXFHjR7pWv2unTO-4" target="GDoxcyXFHjR7pWv2unTO-17">
          <mxGeometry relative="1" as="geometry">
            <mxPoint x="353" y="103" as="sourcePoint" />
            <mxPoint x="353" y="164" as="targetPoint" />
          </mxGeometry>
        </mxCell>
        <mxCell id="GDoxcyXFHjR7pWv2unTO-19" style="edgeStyle=orthogonalEdgeStyle;rounded=0;orthogonalLoop=1;jettySize=auto;html=1;entryX=0.5;entryY=0;entryDx=0;entryDy=0;" edge="1" parent="1" source="GDoxcyXFHjR7pWv2unTO-17" target="GDoxcyXFHjR7pWv2unTO-6">
          <mxGeometry relative="1" as="geometry" />
        </mxCell>
        <mxCell id="GDoxcyXFHjR7pWv2unTO-17" value="管理员登录" style="rounded=0;whiteSpace=wrap;html=1;" vertex="1" parent="1">
          <mxGeometry x="293.25" y="124" width="120.5" height="37" as="geometry" />
        </mxCell>
      </root>
    </mxGraphModel>
  </diagram>
  <diagram id="-1R_IM1ctDtAUz4XbxxV" name="修改房屋">
    <mxGraphModel dx="728" dy="478" grid="0" gridSize="10" guides="1" tooltips="1" connect="1" arrows="1" fold="1" page="1" pageScale="1" pageWidth="827" pageHeight="1169" math="0" shadow="0">
      <root>
        <mxCell id="0" />
        <mxCell id="1" parent="0" />
        <mxCell id="5FaAUxA6km6dEtAq5A-8-1" style="edgeStyle=orthogonalEdgeStyle;rounded=0;orthogonalLoop=1;jettySize=auto;html=1;entryX=0.5;entryY=0;entryDx=0;entryDy=0;" edge="1" parent="1" source="5FaAUxA6km6dEtAq5A-8-2" target="5FaAUxA6km6dEtAq5A-8-8">
          <mxGeometry relative="1" as="geometry" />
        </mxCell>
        <mxCell id="5FaAUxA6km6dEtAq5A-8-2" value="&lt;span&gt;选择所属区域，输入房屋编号、房屋面积等信息&lt;/span&gt;" style="shape=parallelogram;perimeter=parallelogramPerimeter;whiteSpace=wrap;html=1;" vertex="1" parent="1">
          <mxGeometry x="175" y="250" width="328.5" height="40" as="geometry" />
        </mxCell>
        <mxCell id="5FaAUxA6km6dEtAq5A-8-3" value="开始" style="ellipse;whiteSpace=wrap;html=1;" vertex="1" parent="1">
          <mxGeometry x="298.5" y="68" width="109.5" height="35" as="geometry" />
        </mxCell>
        <mxCell id="5FaAUxA6km6dEtAq5A-8-4" style="edgeStyle=orthogonalEdgeStyle;rounded=0;orthogonalLoop=1;jettySize=auto;html=1;entryX=0.542;entryY=0.091;entryDx=0;entryDy=0;entryPerimeter=0;" edge="1" parent="1" source="5FaAUxA6km6dEtAq5A-8-5" target="5FaAUxA6km6dEtAq5A-8-2">
          <mxGeometry relative="1" as="geometry" />
        </mxCell>
        <mxCell id="5FaAUxA6km6dEtAq5A-8-5" value="进入房屋管理界面" style="rounded=0;whiteSpace=wrap;html=1;" vertex="1" parent="1">
          <mxGeometry x="293.25" y="181" width="120" height="37" as="geometry" />
        </mxCell>
        <mxCell id="5FaAUxA6km6dEtAq5A-8-6" style="edgeStyle=orthogonalEdgeStyle;rounded=0;orthogonalLoop=1;jettySize=auto;html=1;entryX=0.5;entryY=0;entryDx=0;entryDy=0;" edge="1" parent="1" source="5FaAUxA6km6dEtAq5A-8-8" target="5FaAUxA6km6dEtAq5A-8-10">
          <mxGeometry relative="1" as="geometry" />
        </mxCell>
        <mxCell id="5FaAUxA6km6dEtAq5A-8-7" style="edgeStyle=orthogonalEdgeStyle;rounded=0;orthogonalLoop=1;jettySize=auto;html=1;entryX=1;entryY=0.25;entryDx=0;entryDy=0;" edge="1" parent="1" source="5FaAUxA6km6dEtAq5A-8-8" target="5FaAUxA6km6dEtAq5A-8-2">
          <mxGeometry relative="1" as="geometry">
            <Array as="points">
              <mxPoint x="593" y="345" />
              <mxPoint x="593" y="280" />
              <mxPoint x="485" y="280" />
            </Array>
          </mxGeometry>
        </mxCell>
        <mxCell id="5FaAUxA6km6dEtAq5A-8-8" value="验证房屋编号、房屋面积等信息是否有效" style="rhombus;whiteSpace=wrap;html=1;" vertex="1" parent="1">
          <mxGeometry x="206.75" y="324" width="265" height="49" as="geometry" />
        </mxCell>
        <mxCell id="5FaAUxA6km6dEtAq5A-8-9" style="edgeStyle=orthogonalEdgeStyle;rounded=0;orthogonalLoop=1;jettySize=auto;html=1;entryX=0.5;entryY=0;entryDx=0;entryDy=0;" edge="1" parent="1" source="5FaAUxA6km6dEtAq5A-8-10" target="5FaAUxA6km6dEtAq5A-8-11">
          <mxGeometry relative="1" as="geometry" />
        </mxCell>
        <mxCell id="5FaAUxA6km6dEtAq5A-8-10" value="修改房屋成功" style="rounded=0;whiteSpace=wrap;html=1;" vertex="1" parent="1">
          <mxGeometry x="279.25" y="405" width="120" height="41" as="geometry" />
        </mxCell>
        <mxCell id="5FaAUxA6km6dEtAq5A-8-11" value="结束" style="ellipse;whiteSpace=wrap;html=1;" vertex="1" parent="1">
          <mxGeometry x="284.5" y="476" width="109.5" height="32" as="geometry" />
        </mxCell>
        <mxCell id="5FaAUxA6km6dEtAq5A-8-12" value="Y" style="text;html=1;align=center;verticalAlign=middle;resizable=0;points=[];autosize=1;" vertex="1" parent="1">
          <mxGeometry x="311" y="383" width="18" height="18" as="geometry" />
        </mxCell>
        <mxCell id="5FaAUxA6km6dEtAq5A-8-13" value="N" style="text;html=1;align=center;verticalAlign=middle;resizable=0;points=[];autosize=1;strokeColor=none;fillColor=none;" vertex="1" parent="1">
          <mxGeometry x="501" y="276" width="27" height="26" as="geometry" />
        </mxCell>
        <mxCell id="5FaAUxA6km6dEtAq5A-8-14" value="" style="edgeStyle=orthogonalEdgeStyle;rounded=0;orthogonalLoop=1;jettySize=auto;html=1;entryX=0.5;entryY=0;entryDx=0;entryDy=0;" edge="1" parent="1" source="5FaAUxA6km6dEtAq5A-8-3" target="5FaAUxA6km6dEtAq5A-8-16">
          <mxGeometry relative="1" as="geometry">
            <mxPoint x="353" y="103" as="sourcePoint" />
            <mxPoint x="353" y="164" as="targetPoint" />
          </mxGeometry>
        </mxCell>
        <mxCell id="5FaAUxA6km6dEtAq5A-8-15" style="edgeStyle=orthogonalEdgeStyle;rounded=0;orthogonalLoop=1;jettySize=auto;html=1;entryX=0.5;entryY=0;entryDx=0;entryDy=0;" edge="1" parent="1" source="5FaAUxA6km6dEtAq5A-8-16" target="5FaAUxA6km6dEtAq5A-8-5">
          <mxGeometry relative="1" as="geometry" />
        </mxCell>
        <mxCell id="5FaAUxA6km6dEtAq5A-8-16" value="管理员登录" style="rounded=0;whiteSpace=wrap;html=1;" vertex="1" parent="1">
          <mxGeometry x="293.25" y="124" width="120.5" height="37" as="geometry" />
        </mxCell>
      </root>
    </mxGraphModel>
  </diagram>
  <diagram id="wInHRmKhGuEEelK4O-BF" name="初始化物业缴费数据">
    <mxGraphModel dx="728" dy="478" grid="0" gridSize="10" guides="1" tooltips="1" connect="1" arrows="1" fold="1" page="1" pageScale="1" pageWidth="827" pageHeight="1169" math="0" shadow="0">
      <root>
        <mxCell id="0" />
        <mxCell id="1" parent="0" />
        <mxCell id="tskqjksot75XiTghjADI-1" style="edgeStyle=orthogonalEdgeStyle;rounded=0;orthogonalLoop=1;jettySize=auto;html=1;entryX=0.5;entryY=0;entryDx=0;entryDy=0;" edge="1" parent="1" source="tskqjksot75XiTghjADI-2" target="tskqjksot75XiTghjADI-8">
          <mxGeometry relative="1" as="geometry" />
        </mxCell>
        <mxCell id="tskqjksot75XiTghjADI-2" value="&lt;span&gt;输入缴费起始日期、缴费截止日期等&lt;/span&gt;" style="shape=parallelogram;perimeter=parallelogramPerimeter;whiteSpace=wrap;html=1;" vertex="1" parent="1">
          <mxGeometry x="175" y="250" width="328.5" height="40" as="geometry" />
        </mxCell>
        <mxCell id="tskqjksot75XiTghjADI-3" value="开始" style="ellipse;whiteSpace=wrap;html=1;" vertex="1" parent="1">
          <mxGeometry x="298.5" y="68" width="109.5" height="35" as="geometry" />
        </mxCell>
        <mxCell id="tskqjksot75XiTghjADI-4" style="edgeStyle=orthogonalEdgeStyle;rounded=0;orthogonalLoop=1;jettySize=auto;html=1;entryX=0.542;entryY=0.091;entryDx=0;entryDy=0;entryPerimeter=0;" edge="1" parent="1" source="tskqjksot75XiTghjADI-5" target="tskqjksot75XiTghjADI-2">
          <mxGeometry relative="1" as="geometry" />
        </mxCell>
        <mxCell id="tskqjksot75XiTghjADI-5" value="进入物业缴费管理界面" style="rounded=0;whiteSpace=wrap;html=1;" vertex="1" parent="1">
          <mxGeometry x="293.25" y="181" width="120" height="37" as="geometry" />
        </mxCell>
        <mxCell id="tskqjksot75XiTghjADI-6" style="edgeStyle=orthogonalEdgeStyle;rounded=0;orthogonalLoop=1;jettySize=auto;html=1;entryX=0.5;entryY=0;entryDx=0;entryDy=0;" edge="1" parent="1" source="tskqjksot75XiTghjADI-8" target="tskqjksot75XiTghjADI-10">
          <mxGeometry relative="1" as="geometry" />
        </mxCell>
        <mxCell id="tskqjksot75XiTghjADI-7" style="edgeStyle=orthogonalEdgeStyle;rounded=0;orthogonalLoop=1;jettySize=auto;html=1;entryX=1;entryY=0.25;entryDx=0;entryDy=0;" edge="1" parent="1" source="tskqjksot75XiTghjADI-8" target="tskqjksot75XiTghjADI-2">
          <mxGeometry relative="1" as="geometry">
            <Array as="points">
              <mxPoint x="593" y="345" />
              <mxPoint x="593" y="280" />
              <mxPoint x="485" y="280" />
            </Array>
          </mxGeometry>
        </mxCell>
        <mxCell id="tskqjksot75XiTghjADI-8" value="验证缴费起始日期和缴费截止日期是否有效" style="rhombus;whiteSpace=wrap;html=1;" vertex="1" parent="1">
          <mxGeometry x="206.75" y="324" width="265" height="49" as="geometry" />
        </mxCell>
        <mxCell id="tskqjksot75XiTghjADI-9" style="edgeStyle=orthogonalEdgeStyle;rounded=0;orthogonalLoop=1;jettySize=auto;html=1;entryX=0.5;entryY=0;entryDx=0;entryDy=0;" edge="1" parent="1" source="tskqjksot75XiTghjADI-10" target="tskqjksot75XiTghjADI-11">
          <mxGeometry relative="1" as="geometry" />
        </mxCell>
        <mxCell id="tskqjksot75XiTghjADI-10" value="初始化成功" style="rounded=0;whiteSpace=wrap;html=1;" vertex="1" parent="1">
          <mxGeometry x="279.25" y="405" width="120" height="41" as="geometry" />
        </mxCell>
        <mxCell id="tskqjksot75XiTghjADI-11" value="结束" style="ellipse;whiteSpace=wrap;html=1;" vertex="1" parent="1">
          <mxGeometry x="284.5" y="476" width="109.5" height="32" as="geometry" />
        </mxCell>
        <mxCell id="tskqjksot75XiTghjADI-12" value="Y" style="text;html=1;align=center;verticalAlign=middle;resizable=0;points=[];autosize=1;" vertex="1" parent="1">
          <mxGeometry x="311" y="383" width="18" height="18" as="geometry" />
        </mxCell>
        <mxCell id="tskqjksot75XiTghjADI-13" value="N" style="text;html=1;align=center;verticalAlign=middle;resizable=0;points=[];autosize=1;strokeColor=none;fillColor=none;" vertex="1" parent="1">
          <mxGeometry x="501" y="276" width="27" height="26" as="geometry" />
        </mxCell>
        <mxCell id="tskqjksot75XiTghjADI-14" value="" style="edgeStyle=orthogonalEdgeStyle;rounded=0;orthogonalLoop=1;jettySize=auto;html=1;entryX=0.5;entryY=0;entryDx=0;entryDy=0;" edge="1" parent="1" source="tskqjksot75XiTghjADI-3" target="tskqjksot75XiTghjADI-16">
          <mxGeometry relative="1" as="geometry">
            <mxPoint x="353" y="103" as="sourcePoint" />
            <mxPoint x="353" y="164" as="targetPoint" />
          </mxGeometry>
        </mxCell>
        <mxCell id="tskqjksot75XiTghjADI-15" style="edgeStyle=orthogonalEdgeStyle;rounded=0;orthogonalLoop=1;jettySize=auto;html=1;entryX=0.5;entryY=0;entryDx=0;entryDy=0;" edge="1" parent="1" source="tskqjksot75XiTghjADI-16" target="tskqjksot75XiTghjADI-5">
          <mxGeometry relative="1" as="geometry" />
        </mxCell>
        <mxCell id="tskqjksot75XiTghjADI-16" value="管理员登录" style="rounded=0;whiteSpace=wrap;html=1;" vertex="1" parent="1">
          <mxGeometry x="293.25" y="124" width="120.5" height="37" as="geometry" />
        </mxCell>
      </root>
    </mxGraphModel>
  </diagram>
  <diagram id="ynlJKTOqTSvgOLJf5qPX" name="删除用户">
    <mxGraphModel dx="1040" dy="683" grid="0" gridSize="10" guides="1" tooltips="1" connect="1" arrows="1" fold="1" page="1" pageScale="1" pageWidth="827" pageHeight="1169" math="0" shadow="0">
      <root>
        <mxCell id="0" />
        <mxCell id="1" parent="0" />
        <mxCell id="m5venkpRqroDZUas6pnE-3" value="开始" style="ellipse;whiteSpace=wrap;html=1;" vertex="1" parent="1">
          <mxGeometry x="298.5" y="68" width="109.5" height="35" as="geometry" />
        </mxCell>
        <mxCell id="m5venkpRqroDZUas6pnE-11" value="结束" style="ellipse;whiteSpace=wrap;html=1;" vertex="1" parent="1">
          <mxGeometry x="299.25" y="658" width="109.5" height="32" as="geometry" />
        </mxCell>
        <mxCell id="m5venkpRqroDZUas6pnE-14" value="" style="edgeStyle=orthogonalEdgeStyle;rounded=0;orthogonalLoop=1;jettySize=auto;html=1;entryX=0.5;entryY=0;entryDx=0;entryDy=0;" edge="1" parent="1" source="m5venkpRqroDZUas6pnE-3" target="m5venkpRqroDZUas6pnE-16">
          <mxGeometry relative="1" as="geometry">
            <mxPoint x="353" y="103" as="sourcePoint" />
            <mxPoint x="353" y="164" as="targetPoint" />
          </mxGeometry>
        </mxCell>
        <mxCell id="m5venkpRqroDZUas6pnE-18" style="edgeStyle=orthogonalEdgeStyle;rounded=0;orthogonalLoop=1;jettySize=auto;html=1;entryX=0.5;entryY=0;entryDx=0;entryDy=0;" edge="1" parent="1" source="m5venkpRqroDZUas6pnE-16" target="5VDDKoWL4G1U2Dpn3f6E-6">
          <mxGeometry relative="1" as="geometry">
            <mxPoint x="353.2550000000001" y="186" as="targetPoint" />
          </mxGeometry>
        </mxCell>
        <mxCell id="5VDDKoWL4G1U2Dpn3f6E-15" style="edgeStyle=orthogonalEdgeStyle;rounded=0;orthogonalLoop=1;jettySize=auto;html=1;entryX=0;entryY=0.5;entryDx=0;entryDy=0;" edge="1" parent="1" source="m5venkpRqroDZUas6pnE-16" target="5VDDKoWL4G1U2Dpn3f6E-14">
          <mxGeometry relative="1" as="geometry" />
        </mxCell>
        <mxCell id="m5venkpRqroDZUas6pnE-16" value="进入用户管理界面" style="rounded=0;whiteSpace=wrap;html=1;" vertex="1" parent="1">
          <mxGeometry x="293.25" y="124" width="120.5" height="37" as="geometry" />
        </mxCell>
        <mxCell id="5VDDKoWL4G1U2Dpn3f6E-13" value="" style="edgeStyle=orthogonalEdgeStyle;rounded=0;orthogonalLoop=1;jettySize=auto;html=1;" edge="1" parent="1" source="5VDDKoWL4G1U2Dpn3f6E-6" target="5VDDKoWL4G1U2Dpn3f6E-12">
          <mxGeometry relative="1" as="geometry" />
        </mxCell>
        <mxCell id="5VDDKoWL4G1U2Dpn3f6E-6" value="指定删除用户" style="shape=parallelogram;perimeter=parallelogramPerimeter;whiteSpace=wrap;html=1;fixedSize=1;" vertex="1" parent="1">
          <mxGeometry x="293.75" y="190" width="120" height="33" as="geometry" />
        </mxCell>
        <mxCell id="5VDDKoWL4G1U2Dpn3f6E-19" style="edgeStyle=elbowEdgeStyle;rounded=0;orthogonalLoop=1;jettySize=auto;elbow=vertical;html=1;entryX=0;entryY=0.5;entryDx=0;entryDy=0;" edge="1" parent="1" source="5VDDKoWL4G1U2Dpn3f6E-12" target="5VDDKoWL4G1U2Dpn3f6E-6">
          <mxGeometry relative="1" as="geometry">
            <mxPoint x="244.66668701171875" y="279.75" as="targetPoint" />
            <Array as="points">
              <mxPoint x="233" y="280" />
            </Array>
          </mxGeometry>
        </mxCell>
        <mxCell id="tiAuiuHfAviAmbW_sblT-3" style="edgeStyle=elbowEdgeStyle;rounded=0;orthogonalLoop=1;jettySize=auto;elbow=vertical;html=1;entryX=1;entryY=0.5;entryDx=0;entryDy=0;" edge="1" parent="1" source="5VDDKoWL4G1U2Dpn3f6E-12" target="tiAuiuHfAviAmbW_sblT-1">
          <mxGeometry relative="1" as="geometry">
            <Array as="points">
              <mxPoint x="512" y="469" />
            </Array>
          </mxGeometry>
        </mxCell>
        <mxCell id="5VDDKoWL4G1U2Dpn3f6E-12" value="确认删除" style="rhombus;whiteSpace=wrap;html=1;" vertex="1" parent="1">
          <mxGeometry x="301.13" y="258" width="104.25" height="43.5" as="geometry" />
        </mxCell>
        <mxCell id="5VDDKoWL4G1U2Dpn3f6E-33" style="edgeStyle=elbowEdgeStyle;rounded=0;orthogonalLoop=1;jettySize=auto;elbow=vertical;html=1;entryX=1;entryY=0.5;entryDx=0;entryDy=0;" edge="1" parent="1" source="5VDDKoWL4G1U2Dpn3f6E-14" target="5VDDKoWL4G1U2Dpn3f6E-12">
          <mxGeometry relative="1" as="geometry">
            <Array as="points">
              <mxPoint x="478" y="277" />
            </Array>
          </mxGeometry>
        </mxCell>
        <mxCell id="5VDDKoWL4G1U2Dpn3f6E-14" value="指定批量删除用户" style="shape=parallelogram;perimeter=parallelogramPerimeter;whiteSpace=wrap;html=1;fixedSize=1;" vertex="1" parent="1">
          <mxGeometry x="482" y="126" width="120" height="33" as="geometry" />
        </mxCell>
        <mxCell id="5VDDKoWL4G1U2Dpn3f6E-22" style="edgeStyle=elbowEdgeStyle;rounded=0;orthogonalLoop=1;jettySize=auto;elbow=vertical;html=1;entryX=0;entryY=0.5;entryDx=0;entryDy=0;" edge="1" parent="1" source="5VDDKoWL4G1U2Dpn3f6E-16" target="m5venkpRqroDZUas6pnE-16">
          <mxGeometry relative="1" as="geometry">
            <Array as="points">
              <mxPoint x="191" y="239" />
            </Array>
          </mxGeometry>
        </mxCell>
        <mxCell id="5VDDKoWL4G1U2Dpn3f6E-30" style="edgeStyle=elbowEdgeStyle;rounded=0;orthogonalLoop=1;jettySize=auto;elbow=vertical;html=1;entryX=0.5;entryY=0;entryDx=0;entryDy=0;" edge="1" parent="1" source="5VDDKoWL4G1U2Dpn3f6E-16" target="5VDDKoWL4G1U2Dpn3f6E-25">
          <mxGeometry relative="1" as="geometry" />
        </mxCell>
        <mxCell id="5VDDKoWL4G1U2Dpn3f6E-16" value="先删除业主信息" style="rhombus;whiteSpace=wrap;html=1;" vertex="1" parent="1">
          <mxGeometry x="301.13" y="336" width="104.25" height="43.5" as="geometry" />
        </mxCell>
        <mxCell id="5VDDKoWL4G1U2Dpn3f6E-20" value="取消" style="text;html=1;align=center;verticalAlign=middle;resizable=0;points=[];autosize=1;strokeColor=none;fillColor=none;" vertex="1" parent="1">
          <mxGeometry x="198" y="229" width="42" height="26" as="geometry" />
        </mxCell>
        <mxCell id="5VDDKoWL4G1U2Dpn3f6E-23" value="N" style="text;html=1;align=center;verticalAlign=middle;resizable=0;points=[];autosize=1;strokeColor=none;fillColor=none;" vertex="1" parent="1">
          <mxGeometry x="159" y="232" width="27" height="26" as="geometry" />
        </mxCell>
        <mxCell id="5VDDKoWL4G1U2Dpn3f6E-29" style="edgeStyle=elbowEdgeStyle;rounded=0;orthogonalLoop=1;jettySize=auto;elbow=vertical;html=1;entryX=0.5;entryY=0;entryDx=0;entryDy=0;" edge="1" parent="1" source="5VDDKoWL4G1U2Dpn3f6E-25" target="5VDDKoWL4G1U2Dpn3f6E-27">
          <mxGeometry relative="1" as="geometry" />
        </mxCell>
        <mxCell id="5VDDKoWL4G1U2Dpn3f6E-25" value="进入业主管理界面" style="rounded=0;whiteSpace=wrap;html=1;" vertex="1" parent="1">
          <mxGeometry x="293.75" y="409" width="120.5" height="37" as="geometry" />
        </mxCell>
        <mxCell id="5VDDKoWL4G1U2Dpn3f6E-34" style="edgeStyle=elbowEdgeStyle;rounded=0;orthogonalLoop=1;jettySize=auto;elbow=vertical;html=1;entryX=0.5;entryY=0;entryDx=0;entryDy=0;" edge="1" parent="1" source="5VDDKoWL4G1U2Dpn3f6E-27" target="5VDDKoWL4G1U2Dpn3f6E-32">
          <mxGeometry relative="1" as="geometry">
            <mxPoint x="354.25" y="530" as="targetPoint" />
          </mxGeometry>
        </mxCell>
        <mxCell id="5VDDKoWL4G1U2Dpn3f6E-27" value="选择删除的业主信息" style="shape=parallelogram;perimeter=parallelogramPerimeter;whiteSpace=wrap;html=1;fixedSize=1;" vertex="1" parent="1">
          <mxGeometry x="294.25" y="471" width="120" height="33" as="geometry" />
        </mxCell>
        <mxCell id="5VDDKoWL4G1U2Dpn3f6E-35" style="edgeStyle=elbowEdgeStyle;rounded=0;orthogonalLoop=1;jettySize=auto;elbow=vertical;html=1;entryX=0;entryY=0.25;entryDx=0;entryDy=0;" edge="1" parent="1" source="5VDDKoWL4G1U2Dpn3f6E-32" target="5VDDKoWL4G1U2Dpn3f6E-25">
          <mxGeometry relative="1" as="geometry">
            <Array as="points">
              <mxPoint x="235" y="511" />
            </Array>
          </mxGeometry>
        </mxCell>
        <mxCell id="tiAuiuHfAviAmbW_sblT-2" style="edgeStyle=elbowEdgeStyle;rounded=0;orthogonalLoop=1;jettySize=auto;elbow=vertical;html=1;exitX=0.5;exitY=1;exitDx=0;exitDy=0;entryX=0.5;entryY=0;entryDx=0;entryDy=0;" edge="1" parent="1" source="5VDDKoWL4G1U2Dpn3f6E-32" target="tiAuiuHfAviAmbW_sblT-1">
          <mxGeometry relative="1" as="geometry" />
        </mxCell>
        <mxCell id="5VDDKoWL4G1U2Dpn3f6E-32" value="确认删除" style="rhombus;whiteSpace=wrap;html=1;" vertex="1" parent="1">
          <mxGeometry x="302.13" y="532" width="104.25" height="43.5" as="geometry" />
        </mxCell>
        <mxCell id="5VDDKoWL4G1U2Dpn3f6E-36" value="未缴费" style="text;html=1;align=center;verticalAlign=middle;resizable=0;points=[];autosize=1;strokeColor=none;fillColor=none;" vertex="1" parent="1">
          <mxGeometry x="183" y="471" width="54" height="26" as="geometry" />
        </mxCell>
        <mxCell id="tiAuiuHfAviAmbW_sblT-5" style="edgeStyle=elbowEdgeStyle;rounded=0;orthogonalLoop=1;jettySize=auto;elbow=vertical;html=1;entryX=0.5;entryY=0;entryDx=0;entryDy=0;" edge="1" parent="1" source="tiAuiuHfAviAmbW_sblT-1" target="m5venkpRqroDZUas6pnE-11">
          <mxGeometry relative="1" as="geometry" />
        </mxCell>
        <mxCell id="tiAuiuHfAviAmbW_sblT-1" value="删除成功" style="rounded=0;whiteSpace=wrap;html=1;" vertex="1" parent="1">
          <mxGeometry x="293" y="598" width="120.5" height="37" as="geometry" />
        </mxCell>
        <mxCell id="tiAuiuHfAviAmbW_sblT-4" value="Y" style="text;html=1;align=center;verticalAlign=middle;resizable=0;points=[];autosize=1;strokeColor=none;fillColor=none;" vertex="1" parent="1">
          <mxGeometry x="330" y="571" width="26" height="26" as="geometry" />
        </mxCell>
      </root>
    </mxGraphModel>
  </diagram>
</mxfile>
